<svg xmlns="http://www.w3.org/2000/svg" viewBox="0 0 114.48 138.47"><g data-name="Слой 2"><path d="M95.57 90.92q-3.46 0-3.47 5.3v3.53H99v-3.5c0-3.57-1.14-5.33-3.43-5.33z"/><path d="M112.48 71.51a14.46 14.46 0 00-12.37-11.26c-14.2-1.59-28.56-1.59-42.87-1.59s-28.68 0-42.87 1.59A14.46 14.46 0 002 71.5c-2 8.67-2 18.13-2 27.06S0 117 2 125.62a14.44 14.44 0 0012.37 11.26c14.19 1.59 28.56 1.59 42.87 1.59s28.67 0 42.87-1.59a14.46 14.46 0 0012.37-11.25c2-8.67 2-18.13 2-27.06s0-18.39-2-27.06zm-79.85 7.8h-8.26v44h-7.69v-44H8.54V72.1h24.12zm20.9 44h-6.92v-4.17c-2.75 3.16-5.36 4.69-7.9 4.69-2.23 0-3.76-.91-4.46-2.84a19.42 19.42 0 01-.61-5.68V85.16h6.92v28.09a20.1 20.1 0 00.06 2.69c.17 1.07.69 1.62 1.62 1.62 1.39 0 2.84-1.07 4.37-3.24V85.16h6.92zm26.28-11.46a30.57 30.57 0 01-.7 7.69c-.92 2.84-2.77 4.29-5.53 4.29-2.46 0-4.84-1.37-7.15-4.23v3.7h-6.92V72.1h6.92v16.73c2.23-2.75 4.61-4.14 7.15-4.14 2.76 0 4.61 1.45 5.53 4.31a29.6 29.6 0 01.7 7.68zm26.11-6.37H92.09v6.77c0 3.53 1.16 5.3 3.53 5.3 1.7 0 2.7-.93 3.09-2.78a45.93 45.93 0 00.15-4.69h7.06v1c0 2.23-.09 3.76-.15 4.46a9.85 9.85 0 01-1.62 4.14 9.56 9.56 0 01-8.37 4.14 9.88 9.88 0 01-8.37-3.91c-1.47-1.91-2.22-4.92-2.22-9V97.6c0-4.08.67-7.07 2.14-9a9.84 9.84 0 018.29-3.91 9.62 9.62 0 018.16 3.91c1.45 1.93 2.14 4.92 2.14 9z"/><path d="M69.9 90.92a5 5 0 00-3.45 1.68v23.27a5 5 0 003.45 1.7c2 0 3-1.7 3-5.15V96.13c.01-3.45-1.01-5.21-3-5.21zM45.24 0h-7.87l-5.28 20.32L26.59 0h-8.15c1.63 4.8 3.33 9.62 5 14.42a127.09 127.09 0 014.73 16.37v21h7.75v-21zM66 39.25v-13.5c0-4.12-.71-7.13-2.17-9.09a10.37 10.37 0 00-14.56-1.73 10.49 10.49 0 00-1.73 1.73c-1.49 2-2.19 5-2.19 9.09v13.5c0 4.1.7 7.14 2.19 9.07a10.37 10.37 0 0014.56 1.73 10.89 10.89 0 001.73-1.73C65.25 46.4 66 43.36 66 39.25zm-7 1.31c0 3.57-1.08 5.35-3.33 5.35s-3.34-1.79-3.34-5.35V24.35c0-3.57 1.08-5.34 3.34-5.34S59 20.78 59 24.35zm32.79 11.17V13.18h-7v29.47c-1.55 2.19-3 3.27-4.41 3.27-.94 0-1.48-.55-1.64-1.64a16.46 16.46 0 01-.08-2.72V13.18h-7v30.5a19.43 19.43 0 00.62 5.73c.7 2 2.25 2.87 4.5 2.87 2.55 0 5.2-1.55 8-4.74v4.21z"/></g></svg>